<?xml version="1.0"?>
<svg xmlns="http://www.w3.org/2000/svg" xmlns:xlink="http://www.w3.org/1999/xlink" xmlns:svgjs="http://svgjs.com/svgjs" version="1.1" width="512" height="512" x="0" y="0" viewBox="0 0 512 512" style="enable-background:new 0 0 512 512" xml:space="preserve" class=""><g><g xmlns="http://www.w3.org/2000/svg"><path d="m478.079 226-50.769-165h54.69v-30c-19.109 0-431.834 0-452 0v30h54.69l-50.77 165h-33.92v15c0 57.897 47.103 105 105 105s105-47.103 105-105v-15h-33.921l-50.769-165h115.69v330h-75v60h-30v30h240v-30h-30v-60h-75v-330h115.69l-50.77 165h-33.92v15c0 57.897 47.103 105 105 105s105-47.103 105-105v-15zm-373.079 90c-36.219 0-66.523-25.81-73.493-60h146.986c-6.97 34.19-37.274 60-73.493 60zm-39.69-90 39.69-128.994 39.69 128.994zm250.69 225h-120v-30h120zm91-353.994 39.69 128.994h-79.38zm0 218.994c-36.219 0-66.523-25.81-73.493-60h146.986c-6.97 34.19-37.274 60-73.493 60z" fill="#9600ff" data-original="#000000" style="" class=""/></g></g></svg>
