<?xml version="1.0"?>
<svg xmlns="http://www.w3.org/2000/svg" xmlns:xlink="http://www.w3.org/1999/xlink" xmlns:svgjs="http://svgjs.com/svgjs" version="1.1" width="512" height="512" x="0" y="0" viewBox="0 0 496 496" style="enable-background:new 0 0 512 512" xml:space="preserve" class=""><g><path xmlns="http://www.w3.org/2000/svg" d="m456.007812 159.992188.007813-40.015626-39.960937.0625.035156-39.976562-40.019532.007812v-40.015624h-40.023437l-.039063-40.054688h-51.328124l-284.679688 284.6875v51.34375l39.992188-.023438-.007813 40.015626 39.960937-.0625-.035156 39.976562 40.019532-.007812v40.007812l40.070312.054688-.023438 40.007812h51.335938l284.6875-284.6875v-51.34375zm23.992188 44.695312-275.3125 275.3125h-28.703125l.015625-39.992188-40.078125-.054687v-40.023437l-40 .007812.03125-40.007812-39.96875.0625.007813-40-40 .023437v-28.703125l275.320312-275.3125h28.710938l.03125 40.054688h40.007812v40.015624l40-.007812-.03125 40.007812 39.96875-.0625-.007812 40 40-.023437v28.703125zm0 0" fill="#008b1c" data-original="#000000" style=""/><path xmlns="http://www.w3.org/2000/svg" d="m221.65625 221.65625-11.3125-11.3125-10.34375 10.34375-16-16-24 24c-5.160156 5.152344-8 12.007812-8 19.3125s2.839844 14.167969 8 19.3125l4.679688 4.6875c2.144531 2.144531 3.320312 4.976562 3.320312 8 0 2.984375-1.207031 5.894531-3.3125 8l-12.6875 12.6875-12.6875-12.6875c-2.105469-2.105469-3.3125-5.015625-3.3125-8s1.207031-5.894531 3.3125-8l10.34375-10.34375-11.3125-11.3125-10.34375 10.34375c-5.160156 5.152344-8 12.007812-8 19.3125 0 5.710938 1.785156 11.121094 5.007812 15.679688l-10.664062 10.664062 11.3125 11.3125 10.34375-10.34375 16 16 24-24c5.160156-5.152344 8-12.007812 8-19.3125 0-7.289062-2.839844-14.152344-8-19.3125l-4.6875-4.6875c-2.105469-2.105469-3.3125-5.015625-3.3125-8s1.207031-5.894531 3.3125-8l12.6875-12.6875 12.679688 12.6875c2.144531 2.144531 3.320312 4.976562 3.320312 8 0 2.984375-1.207031 5.894531-3.3125 8l-10.34375 10.34375 11.3125 11.3125 10.34375-10.34375c5.160156-5.152344 8-12.007812 8-19.3125 0-5.703125-1.785156-11.105469-5.007812-15.671875zm0 0" fill="#008b1c" data-original="#000000" style=""/><path xmlns="http://www.w3.org/2000/svg" d="m192 140.6875-147.3125 147.3125 99.3125 99.3125 147.3125-147.3125zm-124.6875 147.3125 124.6875-124.6875 76.6875 76.6875-124.6875 124.6875zm0 0" fill="#008b1c" data-original="#000000" style=""/><path xmlns="http://www.w3.org/2000/svg" d="m253.105469 79.585938 163.308593 163.308593 34.898438-34.894531-163.3125-163.3125zm163.308593 140.6875-140.6875-140.6875 12.273438-12.273438 140.6875 140.6875zm0 0" fill="#008b1c" data-original="#000000" style=""/><path xmlns="http://www.w3.org/2000/svg" d="m234.339844 101.660156 11.316406-11.316406 159.996094 160-11.3125 11.3125zm0 0" fill="#008b1c" data-original="#000000" style=""/><path xmlns="http://www.w3.org/2000/svg" d="m210.339844 125.660156 11.316406-11.316406 159.996094 160-11.3125 11.3125zm0 0" fill="#008b1c" data-original="#000000" style=""/><path xmlns="http://www.w3.org/2000/svg" d="m290.335938 261.65625 11.316406-11.316406 47.996094 48-11.3125 11.3125zm0 0" fill="#008b1c" data-original="#000000" style=""/><path xmlns="http://www.w3.org/2000/svg" d="m266.335938 285.65625 11.316406-11.316406 47.996094 48-11.3125 11.3125zm0 0" fill="#008b1c" data-original="#000000" style=""/><path xmlns="http://www.w3.org/2000/svg" d="m242.335938 309.65625 11.316406-11.316406 47.996094 48-11.3125 11.3125zm0 0" fill="#008b1c" data-original="#000000" style=""/><path xmlns="http://www.w3.org/2000/svg" d="m218.335938 333.652344 11.316406-11.3125 47.996094 48-11.3125 11.3125zm0 0" fill="#008b1c" data-original="#000000" style=""/><path xmlns="http://www.w3.org/2000/svg" d="m194.335938 357.652344 11.316406-11.3125 47.996094 48-11.3125 11.3125zm0 0" fill="#008b1c" data-original="#000000" style=""/><path xmlns="http://www.w3.org/2000/svg" d="m170.335938 381.652344 11.316406-11.3125 47.996094 47.996094-11.3125 11.316406zm0 0" fill="#008b1c" data-original="#000000" style=""/></g></svg>
