<?xml version="1.0" encoding="utf-8"?>
<!-- Generator: Adobe Illustrator 22.1.0, SVG Export Plug-In . SVG Version: 6.00 Build 0)  -->
<svg version="1.1" id="Layer_1" xmlns="http://www.w3.org/2000/svg" xmlns:xlink="http://www.w3.org/1999/xlink" x="0px" y="0px"
	 viewBox="0 0 512 512" style="enable-background:new 0 0 512 512;" xml:space="preserve">
<style type="text/css">
	.st0{fill:#9600FF;}
</style>
<g>
	<g>
		<path class="st0" d="M421.5,386.8c49.8,0,90.3-40.5,90.3-90.3l-68-175.9h17.9V90.6h-25.1V65.2h-30.1v25.4H298.6
			c-4.5-13-14.7-23.2-27.6-27.8V30.1h29.1V0h-88.2v30.1H241v32.7c-12.8,4.5-23,14.7-27.5,27.5H105.6V65.2H75.5v25.1H48.4v30.1h20
			L0.3,296.5c0,49.8,40.5,90.3,90.3,90.3c49.8,0,90.3-40.5,90.3-90.3l-68.2-176.2h100.8c4.5,12.8,14.7,23,27.5,27.5v273.9H114.6
			v60.2H83.5V512h31.1h282.8h31.1v-30.1h-31.1v-60.2H271V147.8c12.7-4.5,22.8-14.5,27.4-27.2h100.8l-68,175.9
			C331.2,346.3,371.7,386.8,421.5,386.8z M90.5,356.7c-28,0-51.6-19.2-58.3-45.1h116.5C142.1,337.5,118.5,356.7,90.5,356.7z
			 M143.7,281.5H37.4l53.1-135.1L143.7,281.5z M367.3,451.8v30.1H144.7v-30.1H367.3z M256,120.3c-8.3,0-15-6.7-15-15s6.7-15,15-15
			c8.3,0,15,6.7,15,15S264.3,120.3,256,120.3z M421.5,146.4l53.1,135.1H368.3L421.5,146.4z M479.7,311.5
			c-6.7,25.9-30.3,45.1-58.3,45.1c-28,0-51.6-19.2-58.3-45.1H479.7z"/>
	</g>
</g>
</svg>
