<?xml version="1.0"?>
<svg xmlns="http://www.w3.org/2000/svg" xmlns:xlink="http://www.w3.org/1999/xlink" xmlns:svgjs="http://svgjs.com/svgjs" version="1.1" width="512" height="512" x="0" y="0" viewBox="0 0 28.793 28.793" style="enable-background:new 0 0 512 512" xml:space="preserve" class=""><g>
<g xmlns="http://www.w3.org/2000/svg">
	<g>
		<path d="M25.596,10.357c-0.009-0.005-7.068-4.048-8.695-4.893c-1.627-0.844-2.566,0.186-2.283,1.407    c0.025,0.109,0.074,0.217,0.137,0.325c0.028,0.049,0.069,0.099,0.104,0.148c0.04,0.056,0.08,0.112,0.129,0.169    c0.058,0.067,0.125,0.136,0.193,0.204c0.035,0.035,0.069,0.07,0.107,0.105c0.693,0.649,1.797,1.364,2.834,2.336    c0,0,2.197,2.344,4.186,3.901v7.547c0,0.602-0.205,1.154-0.539,1.604h1.203c0,0,5.823,0,5.822-6.526    C28.796,12.615,26.893,10.893,25.596,10.357z" fill="#0000ff" data-original="#000000" style="" class=""/>
		<path d="M1.352,11.946v-1.154c0-0.373,0.303-0.676,0.676-0.675l15.012-0.001c-0.354-0.295-0.706-0.576-1.032-0.827    c-0.238-0.183-0.459-0.355-0.669-0.525H2.027C0.909,8.765,0,9.674,0,10.792v10.816c0,1.118,0.91,2.028,2.028,2.028h17.576    c1.119,0,2.028-0.91,2.028-2.028v-7.22c-0.973-0.786-1.957-1.709-2.702-2.442H1.352z M20.279,21.608    c0,0.373-0.303,0.676-0.676,0.676H2.027c-0.372,0-0.675-0.303-0.675-0.676v-5.69h18.927V21.608z" fill="#0000ff" data-original="#000000" style="" class=""/>
		<rect x="2.387" y="19.507" width="6.253" height="1.648" fill="#0000ff" data-original="#000000" style="" class=""/>
	</g>
</g>
<g xmlns="http://www.w3.org/2000/svg">
</g>
<g xmlns="http://www.w3.org/2000/svg">
</g>
<g xmlns="http://www.w3.org/2000/svg">
</g>
<g xmlns="http://www.w3.org/2000/svg">
</g>
<g xmlns="http://www.w3.org/2000/svg">
</g>
<g xmlns="http://www.w3.org/2000/svg">
</g>
<g xmlns="http://www.w3.org/2000/svg">
</g>
<g xmlns="http://www.w3.org/2000/svg">
</g>
<g xmlns="http://www.w3.org/2000/svg">
</g>
<g xmlns="http://www.w3.org/2000/svg">
</g>
<g xmlns="http://www.w3.org/2000/svg">
</g>
<g xmlns="http://www.w3.org/2000/svg">
</g>
<g xmlns="http://www.w3.org/2000/svg">
</g>
<g xmlns="http://www.w3.org/2000/svg">
</g>
<g xmlns="http://www.w3.org/2000/svg">
</g>
</g></svg>
