<?xml version="1.0" encoding="utf-8"?>
<!-- Generator: Adobe Illustrator 22.1.0, SVG Export Plug-In . SVG Version: 6.00 Build 0)  -->
<svg version="1.1" id="Layer_1" xmlns="http://www.w3.org/2000/svg" xmlns:xlink="http://www.w3.org/1999/xlink" x="0px" y="0px"
	 viewBox="0 0 512 512" style="enable-background:new 0 0 512 512;" xml:space="preserve">
<style type="text/css">
	.st0{fill:#1EA200;}
</style>
<g>
	<g>
		<g>
			<g>
				<g>
					<path class="st0" d="M80.7,505.4l-21.6-19c28.2-31.9,52.2-39.4,54.9-40.1c1.1-0.3,2.3-0.5,3.5-0.5l167.7-4.5l6.3-1.6
						l179.9-96.5c9.8-5.3,14.4-16.6,10-24.7c-4.6-8.5-16.5-8.7-25.4-3.9l-87.7,44.9l-13.1-25.6l87.5-44.7
						c24.1-13,52.4-6.1,64.2,15.8c11.9,22.3,2.2,50.8-21.8,63.7l-181.5,97.3c-1,0.6-2.2,1-3.3,1.3l-9.6,2.4c-1,0.3-2.1,0.4-3.1,0.4
						l-167.1,4.5C116,476.2,99.8,483.8,80.7,505.4z"/>
				</g>
				<g>
					<path class="st0" d="M19.5,417.5L0,396.3l78.5-72c42.8-28.9,92.3-13.8,94.4-13.1c19.1,5,57.3,6.3,57.7,6.3l66,0
						c27.8,0,50.4,20.6,50.4,45.8c0,25.3-22.6,45.8-50.4,45.8h-91.9v-28.8h91.9c11.7,0,21.6-7.8,21.6-17c0-9.2-9.9-17-21.6-17h-66.4
						c-2.2-0.1-42.4-1.4-65.2-7.4c-1-0.3-38.5-11.4-69.5,8.8L19.5,417.5z"/>
				</g>
			</g>
		</g>
	</g>
	<g>
		<g>
			<g>
				<path class="st0" d="M138.3,297.4c-4.5,0-9-2.1-11.8-6.1c-21.6-30.5-33-66.5-33-104c0-49.3,19.5-95.4,54.9-129.7
					c5.7-5.5,14.8-5.4,20.4,0.3c5.5,5.7,5.4,14.8-0.3,20.4c-29.8,28.9-46.2,67.6-46.2,109.1c0,31.5,9.6,61.8,27.7,87.4
					c4.6,6.5,3,15.5-3.5,20.1C144,296.5,141.1,297.4,138.3,297.4z"/>
			</g>
			<g>
				<path class="st0" d="M416.4,287.9c-2.5,0-5.1-0.7-7.5-2.1c-6.8-4.1-9-13-4.8-19.8c14.4-23.7,22-50.9,22-78.7
					c0-83.7-68.1-151.9-151.9-151.9c-22,0-43.2,4.6-63,13.7c-7.2,3.3-15.8,0.1-19.1-7.1c-3.3-7.2-0.1-15.8,7.1-19.1
					c23.6-10.8,48.9-16.3,75-16.3c99.6,0,180.7,81,180.7,180.7c0,33.1-9,65.5-26.2,93.7C426,285.4,421.3,287.9,416.4,287.9z"/>
			</g>
		</g>
	</g>
	<g>
		<path class="st0" d="M233.8,254.9V120.5h47c9.9,0,18.7,2.1,26.4,6.2c7.7,4.2,12.8,9.3,15.3,15.5c2.3,5.9,3.4,12,3.4,18.1
			c0,6.9-1.5,13.2-4.6,18.9s-7.9,10.6-14.3,14.5c3.8,1.9,6.8,4.6,9.1,8.1c2.3,3.5,4.6,8.9,6.9,16.3l10.1,36.7h-26.8L296,221.3
			c-1.6-4.4-3.1-8.1-4.4-10.9c-0.9-2-2.6-3.5-4.9-4.4c-2.4-0.9-5-1.4-8-1.4h-19.5v50.4H233.8z M259.2,181.4h18.1
			c15.3,0,23-6.1,23-18.3c0-6.5-1.8-11.3-5.4-14.4c-3.6-3.2-9.5-4.7-17.5-4.7h-18.1V181.4z"/>
	</g>
</g>
</svg>
