<?xml version="1.0"?>
<svg xmlns="http://www.w3.org/2000/svg" xmlns:xlink="http://www.w3.org/1999/xlink" xmlns:svgjs="http://svgjs.com/svgjs" version="1.1" width="512" height="512" x="0" y="0" viewBox="0 0 64 64" style="enable-background:new 0 0 512 512" xml:space="preserve" class=""><g><circle xmlns="http://www.w3.org/2000/svg" cx="19" cy="19" r="4" fill="#ff0000" data-original="#000000" style="" class=""/><circle xmlns="http://www.w3.org/2000/svg" cx="16" cy="35" r="6" fill="#ff0000" data-original="#000000" style="" class=""/><path xmlns="http://www.w3.org/2000/svg" d="m12.508 43.49 3.492 3.991 3.492-3.991c-1.113-.311-2.281-.49-3.492-.49s-2.379.179-3.492.49z" fill="#ff0000" data-original="#000000" style="" class=""/><path xmlns="http://www.w3.org/2000/svg" d="m5.419 22.338c.336 1.375.881 2.689 1.617 3.904l.318.524-1.229 1.986 2.71 2.71c.62-1.25 1.548-2.32 2.696-3.095-2.826-2.26-4.531-5.711-4.531-9.367 0-6.617 5.383-12 12-12s12 5.383 12 12c0 5.348-3.462 9.91-8.437 11.439.385.552.697 1.156.934 1.797.967-.326 1.888-.751 2.745-1.272l.523-.318.903.559c1.164-4.199 3.799-7.791 7.331-10.16v-4.252l-2.273-.535-.146-.595c-.336-1.375-.881-2.689-1.617-3.904l-.318-.524 1.229-1.986-3.123-3.123-1.986 1.229-.523-.318c-1.214-.737-2.527-1.281-3.904-1.619l-.595-.146-.535-2.272h-4.416l-.535 2.272-.595.146c-1.377.337-2.69.882-3.904 1.619l-.523.318-1.987-1.23-3.123 3.123 1.229 1.986-.318.524c-.736 1.215-1.281 2.528-1.617 3.904l-.146.595-2.273.535v4.416l2.273.535z" fill="#ff0000" data-original="#000000" style="" class=""/><path xmlns="http://www.w3.org/2000/svg" d="m57 35h3.949c-.228-3.658-1.683-6.981-3.968-9.568l-2.789 2.789-1.414-1.414 2.789-2.789c-2.587-2.284-5.91-3.74-9.567-3.967v3.949h-2v-3.949c-3.658.228-6.981 1.683-9.567 3.967l2.789 2.789-1.414 1.414-2.789-2.789c-2.285 2.587-3.74 5.91-3.968 9.568h3.949v2h-3.949c.228 3.658 1.683 6.981 3.968 9.568l2.789-2.789 1.414 1.414-2.789 2.789c2.587 2.284 5.91 3.74 9.567 3.967v-3.949h2v3.949c3.658-.228 6.981-1.683 9.567-3.967l-2.789-2.789 1.414-1.414 2.789 2.789c2.285-2.587 3.74-5.91 3.968-9.568h-3.949zm-7.707 6.707-2.274-2.274c-.595.352-1.279.567-2.019.567-2.206 0-4-1.794-4-4 0-1.858 1.279-3.411 3-3.858v-6.142h2v6.142c1.721.447 3 2 3 3.858 0 .74-.215 1.424-.567 2.019l2.274 2.274z" fill="#ff0000" data-original="#000000" style="" class=""/><circle xmlns="http://www.w3.org/2000/svg" cx="45" cy="36" r="2" fill="#ff0000" data-original="#000000" style="" class=""/><path xmlns="http://www.w3.org/2000/svg" d="m21.498 44.237-5.498 6.282-5.498-6.282c-4.424 2.076-7.502 6.561-7.502 11.763v3c0 1.103.897 2 2 2h8.5c.827 0 1.5-.673 1.5-1.5s-.673-1.5-1.5-1.5h-7.5v-2h2v-4h2v4h3.5c.979 0 1.864.403 2.5 1.053.636-.65 1.521-1.053 2.5-1.053h3.5v-4h2v4h2v2h-7.5c-.827 0-1.5.673-1.5 1.5s.673 1.5 1.5 1.5h8.5c1.103 0 2-.897 2-2v-3c0-5.202-3.078-9.687-7.502-11.763z" fill="#ff0000" data-original="#000000" style="" class=""/><path xmlns="http://www.w3.org/2000/svg" d="m29 19c0-5.514-4.486-10-10-10s-10 4.486-10 10c0 3.378 1.755 6.536 4.588 8.373.762-.241 1.571-.373 2.412-.373 1.897 0 3.639.667 5.011 1.773 4.653-.946 7.989-4.981 7.989-9.773zm-10 6c-3.309 0-6-2.691-6-6s2.691-6 6-6 6 2.691 6 6-2.691 6-6 6z" fill="#ff0000" data-original="#000000" style="" class=""/></g></svg>
